<svg xmlns="http://www.w3.org/2000/svg" xmlns:xlink="http://www.w3.org/1999/xlink" width="500" zoomAndPan="magnify" viewBox="0 0 375 374.999991" height="500" preserveAspectRatio="xMidYMid meet" version="1.0"><defs><g/><clipPath id="77cec08176"><path d="M 67.683594 25.835938 L 307.316406 25.835938 L 307.316406 265.464844 L 67.683594 265.464844 Z M 67.683594 25.835938 " clip-rule="nonzero"/></clipPath><clipPath id="8186092fec"><path d="M 187.5 25.835938 C 121.328125 25.835938 67.683594 79.480469 67.683594 145.652344 C 67.683594 211.824219 121.328125 265.464844 187.5 265.464844 C 253.671875 265.464844 307.316406 211.824219 307.316406 145.652344 C 307.316406 79.480469 253.671875 25.835938 187.5 25.835938 Z M 187.5 25.835938 " clip-rule="nonzero"/></clipPath><clipPath id="f289367f71"><path d="M 0.683594 0.835938 L 240.316406 0.835938 L 240.316406 240.464844 L 0.683594 240.464844 Z M 0.683594 0.835938 " clip-rule="nonzero"/></clipPath><clipPath id="f6dad061d7"><path d="M 120.5 0.835938 C 54.328125 0.835938 0.683594 54.480469 0.683594 120.652344 C 0.683594 186.824219 54.328125 240.464844 120.5 240.464844 C 186.671875 240.464844 240.316406 186.824219 240.316406 120.652344 C 240.316406 54.480469 186.671875 0.835938 120.5 0.835938 Z M 120.5 0.835938 " clip-rule="nonzero"/></clipPath><clipPath id="ac2ac04644"><rect x="0" width="241" y="0" height="241"/></clipPath><clipPath id="7689f48994"><path d="M 113.550781 46 L 261.230469 46 L 261.230469 245 L 113.550781 245 Z M 113.550781 46 " clip-rule="nonzero"/></clipPath><clipPath id="529c543ad4"><rect x="0" width="221" y="0" height="94"/></clipPath></defs><rect x="-37.5" width="450" fill="#ffffff" y="-37.499999" height="449.999989" fill-opacity="1"/><rect x="-37.5" width="450" fill="#ff5d8f" y="-37.499999" height="449.999989" fill-opacity="1"/><g clip-path="url(#77cec08176)"><g clip-path="url(#8186092fec)"><g transform="matrix(1, 0, 0, 1, 67, 25)"><g clip-path="url(#ac2ac04644)"><g clip-path="url(#f289367f71)"><g clip-path="url(#f6dad061d7)"><path fill="#ffffff" d="M 0.683594 0.835938 L 240.316406 0.835938 L 240.316406 240.464844 L 0.683594 240.464844 Z M 0.683594 0.835938 " fill-opacity="1" fill-rule="nonzero"/></g></g></g></g></g></g><g clip-path="url(#7689f48994)"><path fill="#ff5d8f" d="M 194.082031 93.015625 C 192.375 91.304688 189.992188 90.191406 187.335938 90.191406 C 184.675781 90.191406 182.292969 91.304688 180.507812 93.015625 C 178.800781 94.804688 177.691406 97.191406 177.691406 99.859375 C 177.691406 102.445312 178.800781 104.910156 180.507812 106.621094 C 182.292969 108.410156 184.675781 109.445312 187.335938 109.445312 C 189.992188 109.445312 192.375 108.410156 194.082031 106.621094 C 195.867188 104.910156 196.898438 102.445312 196.898438 99.859375 C 196.898438 97.191406 195.867188 94.804688 194.082031 93.015625 Z M 237.695312 118.359375 C 241.863281 120.347656 245.710938 123.054688 249.125 126.476562 C 257.222656 134.511719 261.230469 145.136719 261.230469 155.679688 C 261.230469 166.222656 257.140625 176.886719 249.125 184.882812 L 242.378906 191.644531 L 190.507812 243.609375 C 188.722656 245.398438 185.90625 245.398438 184.121094 243.609375 L 125.503906 184.882812 C 117.488281 176.84375 113.480469 166.222656 113.480469 155.679688 C 113.480469 145.136719 117.488281 134.472656 125.503906 126.476562 C 133.519531 118.476562 144.117188 114.417969 154.632812 114.417969 C 165.152344 114.417969 175.785156 118.4375 183.761719 126.476562 L 187.335938 130.054688 L 190.90625 126.476562 C 198.921875 118.4375 209.441406 114.417969 220.035156 114.417969 C 221.742188 114.417969 223.371094 114.5 225.074219 114.699219 C 223.886719 117.800781 222.335938 120.707031 220.3125 123.453125 C 220.234375 123.453125 220.074219 123.453125 220.035156 123.453125 C 211.742188 123.453125 203.488281 126.554688 197.257812 132.800781 L 190.507812 139.566406 C 188.722656 141.355469 185.90625 141.355469 184.121094 139.566406 L 177.375 132.800781 C 171.0625 126.554688 162.847656 123.453125 154.59375 123.453125 C 152.96875 123.453125 151.339844 123.609375 149.710938 123.808594 C 150.230469 124.644531 150.746094 125.519531 151.339844 126.277344 C 156.894531 133.875 164.832031 139.566406 173.960938 142.46875 C 174.992188 142.707031 176.023438 143.34375 176.621094 144.417969 L 187.296875 161.210938 L 197.890625 144.417969 C 198.488281 143.542969 199.320312 142.867188 200.429688 142.550781 C 209.636719 139.644531 217.613281 133.914062 223.210938 126.277344 C 228.6875 118.914062 231.902344 109.683594 231.902344 99.816406 C 231.902344 87.484375 226.941406 76.265625 218.84375 68.148438 C 210.75 60.109375 199.636719 55.058594 187.335938 55.058594 C 175.03125 55.058594 163.839844 60.109375 155.824219 68.148438 C 147.726562 76.265625 142.769531 87.523438 142.769531 99.859375 C 142.769531 103.875 143.285156 107.816406 144.234375 111.59375 C 141.339844 112.269531 138.441406 113.226562 135.703125 114.5 C 134.355469 109.804688 133.71875 104.910156 133.71875 99.859375 C 133.71875 84.976562 139.710938 71.53125 149.355469 61.78125 C 159.078125 52.035156 172.492188 46.027344 187.335938 46.027344 C 202.175781 46.027344 215.511719 52.035156 225.234375 61.78125 C 234.957031 71.53125 240.949219 84.976562 240.949219 99.859375 C 240.949219 106.304688 239.839844 112.550781 237.695312 118.359375 Z M 187.335938 234.019531 L 242.734375 178.398438 C 248.964844 172.152344 252.140625 163.914062 252.140625 155.640625 C 252.140625 147.402344 248.964844 139.128906 242.734375 132.800781 C 240.078125 130.136719 237.101562 128.027344 233.847656 126.554688 C 232.816406 128.34375 231.703125 130.054688 230.511719 131.6875 C 224.125 140.402344 215.15625 147.085938 204.71875 150.625 L 191.144531 172.03125 C 189.796875 174.101562 187.058594 174.777344 184.914062 173.464844 C 184.320312 173.105469 183.882812 172.589844 183.484375 171.992188 L 169.914062 150.664062 C 159.515625 147.085938 150.546875 140.402344 144.195312 131.726562 C 142.925781 130.097656 141.816406 128.386719 140.863281 126.59375 C 137.609375 128.066406 134.554688 130.175781 131.972656 132.839844 C 125.664062 139.167969 122.566406 147.402344 122.566406 155.679688 C 122.566406 163.914062 125.664062 172.191406 131.972656 178.4375 Z M 187.335938 81.117188 C 192.453125 81.117188 197.136719 83.1875 200.550781 86.609375 C 203.882812 89.949219 205.949219 94.644531 205.949219 99.859375 C 205.949219 104.992188 203.882812 109.683594 200.550781 113.027344 C 197.136719 116.449219 192.453125 118.519531 187.335938 118.519531 C 182.136719 118.519531 177.53125 116.449219 174.121094 113.027344 C 170.785156 109.683594 168.722656 104.992188 168.722656 99.859375 C 168.722656 94.644531 170.785156 89.949219 174.121094 86.609375 C 177.53125 83.1875 182.136719 81.117188 187.335938 81.117188 Z M 187.335938 81.117188 " fill-opacity="1" fill-rule="nonzero"/></g><g transform="matrix(1, 0, 0, 1, 77, 260)"><g clip-path="url(#529c543ad4)"><g fill="#ffffff" fill-opacity="1"><g transform="translate(1.238507, 64.418704)"><g><path d="M 21.25 -1.015625 C 19.945312 -0.398438 18.554688 -0.0351562 17.078125 0.078125 C 15.597656 0.203125 14.113281 0.113281 12.625 -0.1875 C 11.144531 -0.488281 9.734375 -0.953125 8.390625 -1.578125 C 7.054688 -2.203125 5.875 -2.941406 4.84375 -3.796875 C 3.8125 -4.648438 3.003906 -5.582031 2.421875 -6.59375 C 1.847656 -7.601562 1.578125 -8.648438 1.609375 -9.734375 C 1.648438 -10.816406 2.085938 -11.894531 2.921875 -12.96875 C 3.398438 -13.5625 3.859375 -13.90625 4.296875 -14 C 4.734375 -14.09375 5.226562 -14.019531 5.78125 -13.78125 C 6.332031 -13.550781 7.003906 -13.238281 7.796875 -12.84375 C 8.859375 -12.269531 9.867188 -11.894531 10.828125 -11.71875 C 11.796875 -11.550781 12.59375 -11.613281 13.21875 -11.90625 C 13.851562 -12.207031 14.175781 -12.78125 14.1875 -13.625 C 14.175781 -14.3125 13.96875 -14.941406 13.5625 -15.515625 C 13.15625 -16.085938 12.625 -16.617188 11.96875 -17.109375 C 11.3125 -17.609375 10.609375 -18.09375 9.859375 -18.5625 C 9.117188 -19.039062 8.40625 -19.523438 7.71875 -20.015625 C 7.03125 -20.503906 6.445312 -21.023438 5.96875 -21.578125 C 4.582031 -23.203125 3.578125 -24.882812 2.953125 -26.625 C 2.335938 -28.363281 2.070312 -30.078125 2.15625 -31.765625 C 2.25 -33.460938 2.640625 -35.066406 3.328125 -36.578125 C 4.023438 -38.097656 5.003906 -39.4375 6.265625 -40.59375 C 7.523438 -41.757812 9.007812 -42.679688 10.71875 -43.359375 C 12.4375 -44.046875 14.347656 -44.394531 16.453125 -44.40625 C 17.722656 -44.425781 19.007812 -44.21875 20.3125 -43.78125 C 21.625 -43.351562 22.835938 -42.757812 23.953125 -42 C 25.066406 -41.25 25.972656 -40.390625 26.671875 -39.421875 C 27.378906 -38.453125 27.753906 -37.429688 27.796875 -36.359375 C 27.816406 -35.722656 27.675781 -35.0625 27.375 -34.375 C 27.070312 -33.6875 26.664062 -33.046875 26.15625 -32.453125 C 25.65625 -31.859375 25.078125 -31.367188 24.421875 -30.984375 C 23.765625 -30.609375 23.101562 -30.414062 22.4375 -30.40625 C 21.601562 -30.375 20.875 -30.644531 20.25 -31.21875 C 19.625 -31.789062 19.25 -32.644531 19.125 -33.78125 C 19.125 -34.257812 18.941406 -34.609375 18.578125 -34.828125 C 18.210938 -35.054688 17.796875 -35.128906 17.328125 -35.046875 C 16.859375 -34.960938 16.445312 -34.691406 16.09375 -34.234375 C 15.75 -33.773438 15.582031 -33.101562 15.59375 -32.21875 C 15.601562 -31.53125 15.84375 -30.863281 16.3125 -30.21875 C 16.789062 -29.582031 17.398438 -28.96875 18.140625 -28.375 C 18.890625 -27.789062 19.691406 -27.21875 20.546875 -26.65625 C 21.410156 -26.101562 22.234375 -25.566406 23.015625 -25.046875 C 23.804688 -24.523438 24.460938 -24.019531 24.984375 -23.53125 C 26.515625 -22.09375 27.675781 -20.550781 28.46875 -18.90625 C 29.257812 -17.257812 29.691406 -15.570312 29.765625 -13.84375 C 29.835938 -12.125 29.566406 -10.457031 28.953125 -8.84375 C 28.335938 -7.238281 27.382812 -5.757812 26.09375 -4.40625 C 24.800781 -3.0625 23.1875 -1.929688 21.25 -1.015625 Z M 21.25 -1.015625 "/></g></g></g><g fill="#ffffff" fill-opacity="1"><g transform="translate(28.18551, 64.146228)"><g><path d="M 33.4375 -22.578125 C 33.863281 -20.148438 34.160156 -17.820312 34.328125 -15.59375 C 34.492188 -13.363281 34.5 -11.316406 34.34375 -9.453125 C 34.195312 -7.585938 33.851562 -5.960938 33.3125 -4.578125 C 32.78125 -3.191406 32.015625 -2.113281 31.015625 -1.34375 C 30.023438 -0.582031 28.78125 -0.195312 27.28125 -0.1875 C 25.03125 -0.164062 23.378906 -0.765625 22.328125 -1.984375 C 21.285156 -3.210938 20.757812 -4.921875 20.75 -7.109375 C 20.019531 -7.140625 19.242188 -7.132812 18.421875 -7.09375 C 17.597656 -7.050781 16.722656 -6.96875 15.796875 -6.84375 C 16.035156 -5.769531 16.082031 -4.738281 15.9375 -3.75 C 15.789062 -2.757812 15.46875 -1.867188 14.96875 -1.078125 C 14.476562 -0.285156 13.828125 0.335938 13.015625 0.796875 C 12.203125 1.265625 11.257812 1.503906 10.1875 1.515625 C 8.644531 1.523438 7.335938 1.207031 6.265625 0.5625 C 5.203125 -0.0820312 4.335938 -0.96875 3.671875 -2.09375 C 3.003906 -3.226562 2.503906 -4.535156 2.171875 -6.015625 C 1.847656 -7.503906 1.671875 -9.09375 1.640625 -10.78125 C 1.617188 -12.476562 1.703125 -14.195312 1.890625 -15.9375 C 2.085938 -17.6875 2.363281 -19.390625 2.71875 -21.046875 C 3.1875 -23.285156 3.726562 -25.476562 4.34375 -27.625 C 4.957031 -29.78125 5.679688 -31.796875 6.515625 -33.671875 C 7.347656 -35.546875 8.316406 -37.203125 9.421875 -38.640625 C 10.523438 -40.085938 11.8125 -41.222656 13.28125 -42.046875 C 14.75 -42.878906 16.410156 -43.300781 18.265625 -43.3125 C 20.460938 -43.320312 22.320312 -43.03125 23.84375 -42.4375 C 25.375 -41.84375 26.65625 -40.960938 27.6875 -39.796875 C 28.726562 -38.640625 29.59375 -37.210938 30.28125 -35.515625 C 30.976562 -33.828125 31.566406 -31.898438 32.046875 -29.734375 C 32.535156 -27.578125 33 -25.191406 33.4375 -22.578125 Z M 16.296875 -18.03125 L 19.40625 -18.046875 C 19.507812 -19.429688 19.519531 -21.171875 19.4375 -23.265625 C 19.363281 -25.367188 19.179688 -27.84375 18.890625 -30.6875 C 18.835938 -31.34375 18.710938 -31.757812 18.515625 -31.9375 C 18.316406 -32.125 18.125 -32.101562 17.9375 -31.875 C 17.75 -31.644531 17.609375 -31.25 17.515625 -30.6875 C 17.398438 -29.875 17.28125 -28.957031 17.15625 -27.9375 C 17.03125 -26.914062 16.90625 -25.878906 16.78125 -24.828125 C 16.664062 -23.785156 16.5625 -22.800781 16.46875 -21.875 C 16.382812 -20.945312 16.320312 -20.140625 16.28125 -19.453125 C 16.25 -18.773438 16.253906 -18.300781 16.296875 -18.03125 Z M 16.296875 -18.03125 "/></g></g></g><g fill="#ffffff" fill-opacity="1"><g transform="translate(59.775368, 63.935185)"><g><path d="M 20.3125 -14.453125 C 19.976562 -14.453125 19.425781 -14.421875 18.65625 -14.359375 C 17.894531 -14.296875 16.921875 -14.195312 15.734375 -14.0625 L 16.3125 -5.875 C 16.5625 -3.9375 16.265625 -2.484375 15.421875 -1.515625 C 14.585938 -0.546875 13.453125 -0.0546875 12.015625 -0.046875 C 10.285156 -0.0351562 8.84375 -0.3125 7.6875 -0.875 C 6.539062 -1.4375 5.613281 -2.234375 4.90625 -3.265625 C 4.195312 -4.304688 3.671875 -5.550781 3.328125 -7 C 2.992188 -8.445312 2.769531 -10.054688 2.65625 -11.828125 L 1.671875 -30.328125 C 1.546875 -32.753906 1.65625 -34.78125 2 -36.40625 C 2.34375 -38.03125 3.019531 -39.3125 4.03125 -40.25 C 5.039062 -41.195312 6.460938 -41.878906 8.296875 -42.296875 C 10.140625 -42.710938 12.484375 -42.925781 15.328125 -42.9375 C 16.628906 -42.9375 17.828125 -42.867188 18.921875 -42.734375 C 20.015625 -42.609375 20.96875 -42.347656 21.78125 -41.953125 C 22.59375 -41.566406 23.21875 -41 23.65625 -40.25 C 24.101562 -39.5 24.332031 -38.507812 24.34375 -37.28125 C 24.34375 -36.019531 24.144531 -34.992188 23.75 -34.203125 C 23.351562 -33.410156 22.742188 -32.785156 21.921875 -32.328125 C 21.109375 -31.878906 20.066406 -31.488281 18.796875 -31.15625 C 17.203125 -30.707031 16.328125 -30.3125 16.171875 -29.96875 C 16.035156 -28.851562 15.9375 -28.007812 15.875 -27.4375 C 15.820312 -26.875 15.867188 -26.503906 16.015625 -26.328125 C 16.160156 -26.160156 16.457031 -26.085938 16.90625 -26.109375 C 17.113281 -26.109375 17.445312 -26.179688 17.90625 -26.328125 C 18.363281 -26.472656 18.8125 -26.617188 19.25 -26.765625 C 19.6875 -26.910156 19.984375 -26.984375 20.140625 -26.984375 C 21.316406 -26.960938 22.289062 -26.679688 23.0625 -26.140625 C 23.832031 -25.597656 24.40625 -24.894531 24.78125 -24.03125 C 25.15625 -23.164062 25.335938 -22.234375 25.328125 -21.234375 C 25.328125 -20.234375 25.132812 -19.269531 24.75 -18.34375 C 24.375 -17.414062 23.816406 -16.597656 23.078125 -15.890625 C 22.335938 -15.179688 21.414062 -14.703125 20.3125 -14.453125 Z M 20.3125 -14.453125 "/></g></g></g><g fill="#ffffff" fill-opacity="1"><g transform="translate(82.240195, 63.842016)"><g><path d="M 18 -18.703125 C 17.925781 -17.660156 17.851562 -16.828125 17.78125 -16.203125 C 17.707031 -15.578125 17.679688 -15.09375 17.703125 -14.75 C 17.722656 -14.40625 17.8125 -14.125 17.96875 -13.90625 C 18.132812 -13.695312 18.410156 -13.476562 18.796875 -13.25 C 19.816406 -13.539062 20.769531 -13.609375 21.65625 -13.453125 C 22.550781 -13.296875 23.289062 -12.953125 23.875 -12.421875 C 24.46875 -11.898438 24.8125 -11.195312 24.90625 -10.3125 C 25.019531 -9.238281 24.878906 -8.195312 24.484375 -7.1875 C 24.085938 -6.175781 23.5 -5.238281 22.71875 -4.375 C 21.9375 -3.507812 21.015625 -2.75 19.953125 -2.09375 C 18.898438 -1.445312 17.78125 -0.9375 16.59375 -0.5625 C 15.40625 -0.195312 14.207031 -0.015625 13 -0.015625 C 11.050781 -0.015625 9.398438 -0.375 8.046875 -1.09375 C 6.691406 -1.8125 5.578125 -2.820312 4.703125 -4.125 C 3.835938 -5.425781 3.175781 -6.957031 2.71875 -8.71875 C 2.257812 -10.488281 1.957031 -12.425781 1.8125 -14.53125 C 1.675781 -16.632812 1.660156 -18.851562 1.765625 -21.1875 C 1.867188 -23.519531 2.046875 -25.894531 2.296875 -28.3125 C 2.554688 -30.738281 2.851562 -33.140625 3.1875 -35.515625 C 3.664062 -38.941406 4.640625 -41.15625 6.109375 -42.15625 L 15.203125 -43.078125 C 15.992188 -43.265625 16.757812 -43.394531 17.5 -43.46875 C 18.238281 -43.550781 18.960938 -43.59375 19.671875 -43.59375 C 21.085938 -43.59375 22.242188 -43.363281 23.140625 -42.90625 C 24.035156 -42.457031 24.660156 -41.878906 25.015625 -41.171875 C 25.367188 -40.460938 25.46875 -39.707031 25.3125 -38.90625 C 25.164062 -38.113281 24.765625 -37.359375 24.109375 -36.640625 C 23.460938 -35.929688 22.5625 -35.351562 21.40625 -34.90625 C 20.257812 -34.457031 18.867188 -34.234375 17.234375 -34.234375 C 17.117188 -32.898438 17.003906 -31.84375 16.890625 -31.0625 C 16.773438 -30.289062 16.703125 -29.707031 16.671875 -29.3125 C 16.648438 -28.914062 16.71875 -28.632812 16.875 -28.46875 C 17.039062 -28.3125 17.34375 -28.1875 17.78125 -28.09375 C 18.800781 -28.914062 20.128906 -29.328125 21.765625 -29.328125 C 22.628906 -29.328125 23.4375 -29.15625 24.1875 -28.8125 C 24.9375 -28.46875 25.53125 -27.976562 25.96875 -27.34375 C 26.414062 -26.71875 26.613281 -25.96875 26.5625 -25.09375 C 26.5625 -23.476562 26.203125 -22.203125 25.484375 -21.265625 C 24.765625 -20.335938 23.765625 -19.675781 22.484375 -19.28125 C 21.203125 -18.894531 19.707031 -18.703125 18 -18.703125 Z M 18 -18.703125 "/></g></g></g><g fill="#ffffff" fill-opacity="1"><g transform="translate(105.886817, 63.80271)"><g><path d="M 21.234375 -1.25 C 18.640625 -0.195312 15.988281 0.328125 13.28125 0.328125 C 5.582031 0.316406 1.738281 -3.84375 1.75 -12.15625 C 1.75 -15.070312 1.753906 -17.628906 1.765625 -19.828125 C 1.785156 -22.035156 1.820312 -23.96875 1.875 -25.625 C 1.9375 -27.289062 2.003906 -28.75 2.078125 -30 C 2.148438 -31.257812 2.242188 -32.382812 2.359375 -33.375 C 2.472656 -34.363281 2.617188 -35.3125 2.796875 -36.21875 C 3.222656 -37.445312 3.679688 -38.410156 4.171875 -39.109375 C 4.671875 -39.804688 5.304688 -40.316406 6.078125 -40.640625 C 6.847656 -40.972656 7.816406 -41.179688 8.984375 -41.265625 C 10.660156 -41.378906 11.984375 -41.1875 12.953125 -40.6875 C 13.921875 -40.1875 14.640625 -39.398438 15.109375 -38.328125 C 15.578125 -37.253906 15.882812 -35.90625 16.03125 -34.28125 C 16.175781 -32.65625 16.25 -30.78125 16.25 -28.65625 C 16.25 -28.1875 16.21875 -27.484375 16.15625 -26.546875 C 16.09375 -25.609375 16.015625 -24.539062 15.921875 -23.34375 C 15.835938 -22.15625 15.753906 -20.945312 15.671875 -19.71875 C 15.585938 -18.488281 15.515625 -17.34375 15.453125 -16.28125 C 15.398438 -15.226562 15.367188 -14.351562 15.359375 -13.65625 C 15.347656 -12.96875 15.378906 -12.585938 15.453125 -12.515625 C 16.722656 -13.148438 17.882812 -13.476562 18.9375 -13.5 C 20 -13.519531 20.925781 -13.316406 21.71875 -12.890625 C 22.519531 -12.460938 23.175781 -11.878906 23.6875 -11.140625 C 24.207031 -10.398438 24.5625 -9.578125 24.75 -8.671875 C 24.9375 -7.773438 24.9375 -6.859375 24.75 -5.921875 C 24.570312 -4.992188 24.195312 -4.125 23.625 -3.3125 C 23.050781 -2.5 22.253906 -1.8125 21.234375 -1.25 Z M 21.234375 -1.25 "/></g></g></g><g fill="#ffffff" fill-opacity="1"><g transform="translate(127.826996, 63.809463)"><g><path d="M 19.265625 0.109375 C 16.503906 0.0976562 14.046875 -0.421875 11.890625 -1.453125 C 9.734375 -2.484375 7.898438 -3.910156 6.390625 -5.734375 C 4.878906 -7.566406 3.734375 -9.695312 2.953125 -12.125 C 2.179688 -14.5625 1.800781 -17.191406 1.8125 -20.015625 C 1.8125 -22.304688 2.023438 -24.5625 2.453125 -26.78125 C 2.890625 -29.007812 3.523438 -31.09375 4.359375 -33.03125 C 5.203125 -34.96875 6.238281 -36.675781 7.46875 -38.15625 C 8.707031 -39.644531 10.125 -40.804688 11.71875 -41.640625 C 13.320312 -42.484375 15.101562 -42.898438 17.0625 -42.890625 C 19.195312 -42.878906 21.171875 -42.515625 22.984375 -41.796875 C 24.796875 -41.085938 26.421875 -40.078125 27.859375 -38.765625 C 29.296875 -37.453125 30.503906 -35.910156 31.484375 -34.140625 C 32.460938 -32.367188 33.203125 -30.421875 33.703125 -28.296875 C 34.210938 -26.171875 34.429688 -23.9375 34.359375 -21.59375 C 34.296875 -19.425781 34.0625 -17.289062 33.65625 -15.1875 C 33.257812 -13.082031 32.671875 -11.101562 31.890625 -9.25 C 31.117188 -7.40625 30.144531 -5.785156 28.96875 -4.390625 C 27.800781 -2.992188 26.410156 -1.894531 24.796875 -1.09375 C 23.191406 -0.289062 21.347656 0.109375 19.265625 0.109375 Z M 20.59375 -19.515625 C 20.601562 -22.453125 20.367188 -24.671875 19.890625 -26.171875 C 19.421875 -27.671875 18.882812 -28.488281 18.28125 -28.625 C 17.632812 -28.757812 17.015625 -28.050781 16.421875 -26.5 C 15.828125 -24.957031 15.523438 -22.613281 15.515625 -19.46875 C 15.503906 -17.351562 15.742188 -15.769531 16.234375 -14.71875 C 16.734375 -13.675781 17.289062 -13.140625 17.90625 -13.109375 C 18.5625 -13.066406 19.171875 -13.582031 19.734375 -14.65625 C 20.296875 -15.738281 20.582031 -17.359375 20.59375 -19.515625 Z M 20.59375 -19.515625 "/></g></g></g><g fill="#ffffff" fill-opacity="1"><g transform="translate(159.149669, 63.915631)"><g><path d="M 35.59375 -35.265625 C 35.550781 -29.179688 32.5 -19.320312 26.4375 -5.6875 C 25.59375 -3.851562 24.40625 -2.421875 22.875 -1.390625 C 21.351562 -0.367188 19.671875 0.132812 17.828125 0.125 C 16.046875 0.113281 14.476562 -0.195312 13.125 -0.8125 C 11.78125 -1.425781 10.601562 -2.285156 9.59375 -3.390625 C 8.59375 -4.503906 7.726562 -5.800781 7 -7.28125 C 6.269531 -8.769531 5.628906 -10.394531 5.078125 -12.15625 C 4.535156 -13.925781 4.035156 -15.757812 3.578125 -17.65625 C 3.304688 -18.84375 3.054688 -20.140625 2.828125 -21.546875 C 2.597656 -22.960938 2.40625 -24.410156 2.25 -25.890625 C 2.09375 -27.378906 2 -28.832031 1.96875 -30.25 C 1.9375 -31.675781 1.972656 -33 2.078125 -34.21875 C 2.179688 -35.4375 2.382812 -36.476562 2.6875 -37.34375 C 3.03125 -38.40625 3.585938 -39.285156 4.359375 -39.984375 C 5.140625 -40.691406 6.023438 -41.210938 7.015625 -41.546875 C 8.003906 -41.890625 9.007812 -42.023438 10.03125 -41.953125 C 11.050781 -41.878906 11.988281 -41.585938 12.84375 -41.078125 C 13.707031 -40.578125 14.382812 -39.832031 14.875 -38.84375 C 15.707031 -37.113281 16.378906 -33.710938 16.890625 -28.640625 L 17.5625 -21.828125 C 17.78125 -23.648438 17.96875 -25.441406 18.125 -27.203125 C 18.28125 -28.972656 18.460938 -30.664062 18.671875 -32.28125 C 18.890625 -33.894531 19.179688 -35.378906 19.546875 -36.734375 C 19.921875 -38.097656 20.429688 -39.28125 21.078125 -40.28125 C 21.722656 -41.289062 22.546875 -42.066406 23.546875 -42.609375 C 24.546875 -43.160156 25.785156 -43.429688 27.265625 -43.421875 C 28.972656 -43.410156 30.453125 -43.082031 31.703125 -42.4375 C 32.960938 -41.800781 33.925781 -40.878906 34.59375 -39.671875 C 35.269531 -38.460938 35.601562 -36.992188 35.59375 -35.265625 Z M 35.59375 -35.265625 "/></g></g></g><g fill="#ffffff" fill-opacity="1"><g transform="translate(191.544365, 64.141188)"><g><path d="M 18.21875 -18.5 C 18.132812 -17.457031 18.050781 -16.625 17.96875 -16 C 17.882812 -15.375 17.847656 -14.890625 17.859375 -14.546875 C 17.878906 -14.203125 17.96875 -13.921875 18.125 -13.703125 C 18.289062 -13.484375 18.5625 -13.257812 18.9375 -13.03125 C 19.96875 -13.3125 20.925781 -13.367188 21.8125 -13.203125 C 22.695312 -13.035156 23.429688 -12.6875 24.015625 -12.15625 C 24.597656 -11.625 24.9375 -10.914062 25.03125 -10.03125 C 25.125 -8.957031 24.96875 -7.914062 24.5625 -6.90625 C 24.164062 -5.90625 23.566406 -4.972656 22.765625 -4.109375 C 21.972656 -3.253906 21.046875 -2.503906 19.984375 -1.859375 C 18.921875 -1.222656 17.789062 -0.726562 16.59375 -0.375 C 15.40625 -0.03125 14.207031 0.132812 13 0.125 C 11.050781 0.101562 9.398438 -0.269531 8.046875 -1 C 6.703125 -1.726562 5.601562 -2.75 4.75 -4.0625 C 3.90625 -5.382812 3.257812 -6.929688 2.8125 -8.703125 C 2.375 -10.472656 2.097656 -12.410156 1.984375 -14.515625 C 1.867188 -16.617188 1.875 -18.835938 2 -21.171875 C 2.132812 -23.503906 2.34375 -25.878906 2.625 -28.296875 C 2.90625 -30.710938 3.222656 -33.109375 3.578125 -35.484375 C 4.109375 -38.898438 5.113281 -41.097656 6.59375 -42.078125 L 15.6875 -42.90625 C 16.476562 -43.082031 17.242188 -43.203125 17.984375 -43.265625 C 18.734375 -43.335938 19.460938 -43.375 20.171875 -43.375 C 21.585938 -43.351562 22.738281 -43.109375 23.625 -42.640625 C 24.519531 -42.179688 25.140625 -41.597656 25.484375 -40.890625 C 25.828125 -40.179688 25.921875 -39.425781 25.765625 -38.625 C 25.609375 -37.832031 25.195312 -37.082031 24.53125 -36.375 C 23.863281 -35.664062 22.953125 -35.09375 21.796875 -34.65625 C 20.648438 -34.226562 19.257812 -34.019531 17.625 -34.03125 C 17.488281 -32.695312 17.359375 -31.640625 17.234375 -30.859375 C 17.117188 -30.085938 17.046875 -29.503906 17.015625 -29.109375 C 16.984375 -28.710938 17.046875 -28.429688 17.203125 -28.265625 C 17.367188 -28.109375 17.671875 -27.984375 18.109375 -27.890625 C 19.140625 -28.703125 20.472656 -29.097656 22.109375 -29.078125 C 22.972656 -29.066406 23.773438 -28.882812 24.515625 -28.53125 C 25.265625 -28.1875 25.851562 -27.691406 26.28125 -27.046875 C 26.71875 -26.410156 26.90625 -25.660156 26.84375 -24.796875 C 26.820312 -23.179688 26.445312 -21.910156 25.71875 -20.984375 C 25 -20.066406 23.992188 -19.414062 22.703125 -19.03125 C 21.421875 -18.65625 19.925781 -18.476562 18.21875 -18.5 Z M 18.21875 -18.5 "/></g></g></g></g></g></svg>